Coordinates
version=1
nRows=27
nColumns=12
inDegrees=yes

Units are S.I. units (second, meters, Newtons, ...)
Angles are in degrees

endheader
time	SC_y	SC_z	SC_x	AC_y	AC_z	AC_x	GH_y	GH_z	GH_yy	EL_x	PS_y
       0.0              -52.68          11.86          25.25           47.1         0.1739          -14.3         -124.1          42.84          138.3          89.33          141.9
   0.02188              -52.67          11.87          25.25           47.1         0.1724         -14.29         -124.0          42.84          138.3          89.33          141.9
   0.04377              -52.67          11.87          25.26           47.1         0.1708         -14.29         -124.0          42.85          138.3          89.33          141.9
   0.06565              -52.66          11.88          25.26           47.1         0.1691         -14.29         -124.0          42.85          138.3          89.33          141.9
   0.08754              -52.66          11.88          25.27          47.09         0.1672         -14.28         -124.0          42.86          138.2          89.33          141.9
    0.1094              -52.65          11.88          25.27          47.09         0.1653         -14.28         -124.0          42.87          138.2          89.34          141.9
    0.1313              -52.65          11.89          25.28          47.09         0.1633         -14.27         -123.9          42.88          138.2          89.34          141.9
    0.1532              -52.64           11.9          25.29          47.09         0.1611         -14.27         -123.9          42.88          138.2          89.34          141.9
    0.1751              -52.63           11.9           25.3          47.09         0.1587         -14.26         -123.9          42.89          138.1          89.34          141.8
     0.197              -52.62          11.91           25.3          47.08         0.1562         -14.26         -123.8           42.9          138.1          89.35          141.8
    0.2188              -52.61          11.91          25.31          47.08         0.1535         -14.25         -123.8          42.91          138.1          89.35          141.8
    0.2407              -52.61          11.92          25.32          47.08         0.1505         -14.25         -123.8          42.93          138.0          89.35          141.8
    0.2626               -52.6          11.93          25.33          47.08         0.1474         -14.24         -123.7          42.94          138.0          89.36          141.8
    0.2845              -52.58          11.94          25.34          47.07          0.144         -14.23         -123.7          42.95          137.9          89.36          141.8
    0.3064              -52.57          11.95          25.35          47.07         0.1403         -14.23         -123.6          42.96          137.9          89.36          141.8
    0.3283              -52.56          11.96          25.37          47.06         0.1363         -14.22         -123.6          42.98          137.8          89.37          141.8
    0.3502              -52.55          11.97          25.38          47.06          0.132         -14.21         -123.5           43.0          137.8          89.37          141.8
     0.372              -52.53          11.98           25.4          47.06         0.1272          -14.2         -123.5          43.01          137.7          89.38          141.8
    0.3939              -52.51          11.99          25.41          47.05         0.1221         -14.19         -123.4          43.03          137.7          89.38          141.8
    0.4158               -52.5          12.01          25.43          47.05         0.1164         -14.18         -123.3          43.06          137.6          89.39          141.8
    0.4377              -52.48          12.02          25.45          47.04         0.1102         -14.16         -123.3          43.08          137.5           89.4          141.7
    0.4596              -52.45          12.04          25.47          47.03         0.1034         -14.15         -123.2          43.11          137.4           89.4          141.7
    0.4815              -52.43          12.06           25.5          47.03        0.09581         -14.13         -123.1          43.14          137.3          89.41          141.7
    0.5033               -52.4          12.08          25.53          47.02        0.08744         -14.12         -123.0          43.17          137.2          89.42          141.7
    0.5252              -52.37          12.11          25.56          47.01        0.07815          -14.1         -122.9           43.2          137.1          89.43          141.7
    0.5471              -52.34          12.13          25.59           47.0        0.06777         -14.07         -122.7          43.24          137.0          89.44          141.7
     0.569               -52.3          12.16          25.63          46.99        0.05615         -14.05         -122.6          43.29          136.8          89.46          141.6
